<svg id="visual" viewBox="0 0 900 600" width="900" height="600" xmlns="http://www.w3.org/2000/svg" xmlns:xlink="http://www.w3.org/1999/xlink" version="1.1"><path d="M0 55L82 55L82 73L164 73L164 73L245 73L245 109L327 109L327 103L409 103L409 157L491 157L491 85L573 85L573 169L655 169L655 97L736 97L736 61L818 61L818 79L900 79L900 151L900 0L900 0L818 0L818 0L736 0L736 0L655 0L655 0L573 0L573 0L491 0L491 0L409 0L409 0L327 0L327 0L245 0L245 0L164 0L164 0L82 0L82 0L0 0Z" fill="#f7caca"></path><path d="M0 229L82 229L82 229L164 229L164 307L245 307L245 199L327 199L327 295L409 295L409 253L491 253L491 193L573 193L573 283L655 283L655 187L736 187L736 271L818 271L818 211L900 211L900 313L900 149L900 77L818 77L818 59L736 59L736 95L655 95L655 167L573 167L573 83L491 83L491 155L409 155L409 101L327 101L327 107L245 107L245 71L164 71L164 71L82 71L82 53L0 53Z" fill="#fdbab2"></path><path d="M0 313L82 313L82 307L164 307L164 367L245 367L245 295L327 295L327 343L409 343L409 349L491 349L491 247L573 247L573 319L655 319L655 283L736 283L736 367L818 367L818 277L900 277L900 367L900 311L900 209L818 209L818 269L736 269L736 185L655 185L655 281L573 281L573 191L491 191L491 251L409 251L409 293L327 293L327 197L245 197L245 305L164 305L164 227L82 227L82 227L0 227Z" fill="#ffab95"></path><path d="M0 421L82 421L82 379L164 379L164 493L245 493L245 373L327 373L327 433L409 433L409 403L491 403L491 319L573 319L573 367L655 367L655 397L736 397L736 439L818 439L818 373L900 373L900 439L900 365L900 275L818 275L818 365L736 365L736 281L655 281L655 317L573 317L573 245L491 245L491 347L409 347L409 341L327 341L327 293L245 293L245 365L164 365L164 305L82 305L82 311L0 311Z" fill="#fe9f74"></path><path d="M0 601L82 601L82 601L164 601L164 601L245 601L245 601L327 601L327 601L409 601L409 601L491 601L491 601L573 601L573 601L655 601L655 601L736 601L736 601L818 601L818 601L900 601L900 601L900 437L900 371L818 371L818 437L736 437L736 395L655 395L655 365L573 365L573 317L491 317L491 401L409 401L409 431L327 431L327 371L245 371L245 491L164 491L164 377L82 377L82 419L0 419Z" fill="#f7964f"></path></svg>